<mxfile host="app.diagrams.net" modified="2023-09-02T09:37:21.822Z" agent="Mozilla/5.0 (Windows NT 10.0; Win64; x64) AppleWebKit/537.36 (KHTML, like Gecko) Chrome/116.0.0.0 Safari/537.36" etag="nDEvJnDrCYVSztsXuUa8" version="21.6.9" type="github">
  <diagram name="第 1 页" id="ZBeE-IGXtggiBX4HHx17">
    <mxGraphModel dx="954" dy="2238" grid="1" gridSize="10" guides="1" tooltips="1" connect="1" arrows="0" fold="1" page="1" pageScale="1" pageWidth="827" pageHeight="1169" math="0" shadow="0">
      <root>
        <mxCell id="0" />
        <mxCell id="1" parent="0" />
        <mxCell id="BCmyFM5ReoBiYYHbd89F-8" value="12" style="rounded=1;whiteSpace=wrap;html=1;fillColor=#d5e8d4;strokeColor=#82b366;" vertex="1" parent="1">
          <mxGeometry x="90" y="640" width="120" height="60" as="geometry" />
        </mxCell>
        <mxCell id="BCmyFM5ReoBiYYHbd89F-15" style="edgeStyle=orthogonalEdgeStyle;curved=1;rounded=0;orthogonalLoop=1;jettySize=auto;html=1;exitX=1;exitY=0;exitDx=0;exitDy=0;entryX=0;entryY=0;entryDx=0;entryDy=0;startArrow=none;startFill=0;endArrow=none;endFill=0;" edge="1" parent="1" source="BCmyFM5ReoBiYYHbd89F-9" target="BCmyFM5ReoBiYYHbd89F-10">
          <mxGeometry relative="1" as="geometry" />
        </mxCell>
        <mxCell id="BCmyFM5ReoBiYYHbd89F-9" value="13" style="rounded=1;whiteSpace=wrap;html=1;fillColor=#d5e8d4;strokeColor=#82b366;" vertex="1" parent="1">
          <mxGeometry x="210" y="640" width="120" height="60" as="geometry" />
        </mxCell>
        <mxCell id="BCmyFM5ReoBiYYHbd89F-10" value="18" style="rounded=1;whiteSpace=wrap;html=1;fillColor=#d5e8d4;strokeColor=#82b366;" vertex="1" parent="1">
          <mxGeometry x="490" y="640" width="120" height="60" as="geometry" />
        </mxCell>
        <mxCell id="BCmyFM5ReoBiYYHbd89F-16" value="&lt;h1&gt;&lt;br&gt;&lt;/h1&gt;&lt;div&gt;锁住此间隙（13，18）&lt;/div&gt;" style="text;html=1;strokeColor=none;fillColor=none;spacing=5;spacingTop=-20;whiteSpace=wrap;overflow=hidden;rounded=0;" vertex="1" parent="1">
          <mxGeometry x="340" y="540" width="156" height="70" as="geometry" />
        </mxCell>
      </root>
    </mxGraphModel>
  </diagram>
</mxfile>
